<svg width="6" height="21" viewBox="0 0 6 21" fill="none" xmlns="http://www.w3.org/2000/svg">
<path d="M0.654297 18.1671C0.654297 18.7858 0.900057 19.3791 1.33751 19.8166C1.77497 20.254 2.36829 20.4998 2.98695 20.4998C3.6056 20.4998 4.19892 20.254 4.63638 19.8166C5.07383 19.3791 5.3196 18.7858 5.3196 18.1671C5.3196 17.5485 5.07383 16.9551 4.63638 16.5177C4.19892 16.0802 3.6056 15.8345 2.98695 15.8345C2.36829 15.8345 1.77497 16.0802 1.33751 16.5177C0.900057 16.9551 0.654297 17.5485 0.654297 18.1671Z" fill="#6B6C7E"/>
<path d="M0.654297 2.83851C0.654297 3.45717 0.900057 4.05048 1.33751 4.48794C1.77497 4.9254 2.36829 5.17116 2.98695 5.17116C3.6056 5.17116 4.19892 4.9254 4.63638 4.48794C5.07383 4.05048 5.3196 3.45717 5.3196 2.83851C5.3196 2.21985 5.07383 1.62653 4.63638 1.18908C4.19892 0.75162 3.6056 0.505859 2.98695 0.505859C2.36829 0.505859 1.77497 0.75162 1.33751 1.18908C0.900057 1.62653 0.654297 2.21985 0.654297 2.83851Z" fill="#6B6C7E"/>
<path d="M0.654297 10.5031C0.654297 11.1217 0.900057 11.715 1.33751 12.1525C1.77497 12.5899 2.36829 12.8357 2.98695 12.8357C3.6056 12.8357 4.19892 12.5899 4.63638 12.1525C5.07383 11.715 5.3196 11.1217 5.3196 10.5031C5.3196 9.8844 5.07383 9.29108 4.63638 8.85363C4.19892 8.41617 3.6056 8.17041 2.98695 8.17041C2.36829 8.17041 1.77497 8.41617 1.33751 8.85363C0.900057 9.29108 0.654297 9.8844 0.654297 10.5031Z" fill="#6B6C7E"/>
</svg>
